<?xml version="1.0" encoding="UTF-8"?>
<svg id="POR_SOCIEDAD_BÍBLICA_ARGENTINA" xmlns="http://www.w3.org/2000/svg" version="1.1" viewBox="0 0 1098 309">
  <!-- Generator: Adobe Illustrator 29.0.0, SVG Export Plug-In . SVG Version: 2.1.0 Build 186)  -->
  <defs>
    <style>
      .st0 {
        fill: #fff;
      }
    </style>
  </defs>
  <g>
    <path class="st0" d="M55.2,21.2c0,3.9-.8,7.2-2.4,10.1-3.4,5.9-10.2,9.4-19.4,9.4H8.4v28.9H-.4V1.9h33.8c9.2,0,16,3.5,19.4,9.3,1.6,2.9,2.4,6.3,2.4,10.1ZM46.2,21.2c0-2.2-.4-4.3-1.5-6.1-1.9-3.3-5.8-5.3-11.7-5.3H8.4v22.9h24.6c5.9,0,9.8-2.1,11.7-5.3,1.1-1.9,1.5-3.9,1.5-6.2Z"/>
    <path class="st0" d="M97.1,39.8l2.5,1.4,23.6,28.4h-11.7l-24.7-30.5h-10.4v30.5h-8.8V1.9h33.4c9.8,0,16.5,2.9,19.9,8.7,1.6,2.7,2.3,6,2.3,9.9s-.8,6.8-2.2,9.4c-3.4,5.8-10.9,8.6-20.8,8.6h-3.1v1.4ZM76.5,9.8v21.7h24.8c5.6,0,9.6-1.6,11.5-5,1-1.6,1.5-3.7,1.5-5.9s-.4-4.1-1.3-5.5c-2-3.5-5.9-5.2-11.6-5.2h-24.9Z"/>
    <path class="st0" d="M134,48.7c-1.6-4.1-2.2-8.5-2.2-13s.7-8.9,2.2-13C139.2,8.7,153.7,0,173.4,0s34.2,8.7,39.4,22.7c1.6,4.1,2.2,8.5,2.2,13s-.7,8.9-2.2,13c-5,13.9-19.6,22.7-39.3,22.7s-34.2-8.5-39.4-22.7ZM204,45.8c1.2-3.1,1.7-6.5,1.7-10.1s-.6-7-1.7-10.1c-3.9-10.9-15.2-17.7-30.6-17.7s-26.8,6.8-30.6,17.7c-1.2,3.1-1.7,6.5-1.7,10.1s.6,7,1.7,10.1c4,10.9,15.2,17.7,30.6,17.7s26.7-6.6,30.6-17.7Z"/>
    <path class="st0" d="M285.8,1.9l-30.1,43v24.8h-8.7v-24.9L217,1.9h10.9l22.2,32.2.7,3.4h1.3l.7-3.4L274.9,1.9h11Z"/>
    <path class="st0" d="M296.4,69.6V1.9h49.4v7.9h-40.6v21.8h39.6v7.9h-39.6v22.2h40.6v7.9h-49.4Z"/>
    <path class="st0" d="M359.2,48.9c-1.5-4-2.2-8.4-2.2-13.2s.8-9.2,2.2-13.2C364.4,8.3,379.2,0,398,0s35.8,10.8,37.1,26h-9c-1.9-10.7-12.3-18.1-28.1-18.1s-26.1,6.4-30,17.5c-1.2,3.1-1.7,6.6-1.7,10.3s.6,7.2,1.7,10.3c4.1,11.1,15.5,17.5,29.9,17.5s24.8-7.2,27.2-18.1h9c-2.2,15.2-15.3,26-36.6,26s-33-8.3-38.2-22.5Z"/>
    <path class="st0" d="M503.4,1.9v7.9h-27.6v59.8h-8.7V9.8h-27.5V1.9h63.9Z"/>
    <path class="st0" d="M507.6,48.7c-1.6-4.1-2.2-8.5-2.2-13s.7-8.9,2.2-13C512.7,8.7,527.3,0,547,0s34.2,8.7,39.4,22.7c1.6,4.1,2.2,8.5,2.2,13s-.7,8.9-2.2,13c-5,13.9-19.6,22.7-39.3,22.7s-34.2-8.5-39.4-22.7ZM577.6,45.8c1.2-3.1,1.7-6.5,1.7-10.1s-.6-7-1.7-10.1c-3.9-10.9-15.2-17.7-30.6-17.7s-26.8,6.8-30.6,17.7c-1.2,3.1-1.7,6.5-1.7,10.1s.6,7,1.7,10.1c4,10.9,15.2,17.7,30.6,17.7s26.7-6.6,30.6-17.7Z"/>
  </g>
  <g>
    <path class="st0" d="M154.6,154.1c0,55.1-59.3,56-86.8,56h-18.9v44.2H2.2V97.7h65.5c29.7,0,86.8.9,86.8,56.4ZM107.3,154.7c0-21-13.8-24.7-40.6-24.7h-17.6v48h16.5c26.9,0,41.7-2.4,41.7-23.4Z"/>
    <path class="st0" d="M290.8,254.2l-51.4-48.7h-20.4v48.7h-46.6V97.7h67.5c36.1,0,86,0,86,52.3s-17.8,43.1-40,49.8l59.3,54.5h-54.4ZM239,130.7h-20v44h15.9c21.5,0,43.8-1.3,43.8-22.3s-15.3-21.7-39.8-21.7Z"/>
    <path class="st0" d="M398.5,130.7v28.3h61v29.6h-61v32.4h88.1v33.2h-134.7V97.7h134.7v33h-88.1Z"/>
    <path class="st0" d="M671.8,174.7c0,68.2-44.5,79.6-106.6,79.6h-58.7V97.7h59.3c61,0,105.9,8.8,105.9,77ZM624.6,174.7c0-40.3-23.9-44-57.4-44h-14v90.3h13.8c33.3,0,57.6-5.6,57.6-46.3Z"/>
    <path class="st0" d="M687.1,97.7h46.6v156.6h-46.6V97.7Z"/>
    <path class="st0" d="M752.9,176.4c0-61.3,43.8-81.1,95.8-81.1s54.2,11.8,54.2,11.8l-7.7,33s-21.1-10.7-46.4-10.7-48.8,13.9-48.8,47,16.3,45.9,48.8,45.9,42.6-8.2,49.4-12.2l6,34.3c-8.8,4.3-28.6,12.2-55.4,12.2-52.4,0-95.8-17.2-95.8-80.2Z"/>
    <path class="st0" d="M1035.5,221.2h-66.6l-12.9,33h-44.9l64.7-156.6h52.9l64.7,156.6h-44.9l-12.9-33ZM1023.9,191.6l-21.7-55.8-21.7,55.8h43.4ZM995.3,118.2l-.4,1.9,1.1-.2-.6-1.7Z"/>
  </g>
  <g>
    <path class="st0" d="M547.3,307.6v-17.8h4.6c3,0,5,1.6,5,5.3v1.9c0,3.8-1.9,5.4-4.8,5.4h-1.7v5.2h-3.1ZM550.4,299.7h1.2c1.4,0,2.3-.5,2.3-2.7v-1.8c0-1.9-.7-2.6-2.2-2.6h-1.3v7.1Z"/>
    <path class="st0" d="M558,302v-6.5c0-4,1.6-6,5-6s5.1,2,5.1,6v6.5c0,4-1.6,6-5.1,6s-5-2.1-5-6ZM564.9,302.3v-7.2c0-2-.7-2.9-1.9-2.9s-1.9.8-1.9,2.9v7.2c0,2,.7,2.9,1.9,2.9s1.9-.9,1.9-2.9Z"/>
    <path class="st0" d="M570,307.6v-17.8h4.9c3.1,0,4.8,1.5,4.8,4.5v1.4c0,2-.9,3.3-2.4,3.7h0c1.4.4,2.1,1.8,2.2,3.6v2.4c.2,1,.4,1.8.6,2.3h-3.1c-.1-.5-.3-1.5-.4-2.8l-.2-2.2c-.1-1.2-.7-1.8-2-1.8h-1.2v6.8h-3.1ZM573.1,298.3h1.4c1.2,0,2-.6,2-2.3v-1.5c0-1.3-.6-2-1.8-2h-1.6v5.8Z"/>
    <path class="st0" d="M586.9,299.2v-1.9h5.6v1.9c0,2,.7,4.2,3.6,4.2s3.2-1.3,3.2-3.3v-2.1c0-3.1-1.7-3.7-5.3-5.3-4.3-1.9-6.6-3.7-6.6-8.5v-1.8c0-4.9,3.5-7.7,8.6-7.7s8.7,3.4,8.7,8.9v1.7h-5.3v-1.7c0-2.3-.8-3.9-3.3-3.9s-2.9,1.2-2.9,2.8v1.8c0,2.5,1.8,3.2,4,4.1,5.3,2.2,7.9,4.5,7.9,9.8v2.1c0,5.1-3.5,8.2-8.9,8.2s-9.2-3.1-9.2-9.1Z"/>
    <path class="st0" d="M609,297.3v-11.8c0-7.2,2.9-10.9,9.2-10.9s9.2,3.7,9.2,10.9v11.8c0,7.2-2.9,11-9.2,11s-9.2-3.8-9.2-11ZM621.7,297.9v-13.1c0-3.7-1.2-5.2-3.5-5.2s-3.5,1.5-3.5,5.2v13.1c0,3.7,1.3,5.3,3.5,5.3s3.5-1.6,3.5-5.3Z"/>
    <path class="st0" d="M632,297.3v-11.7c0-7.4,2.8-11,9.1-11s9.1,4.3,9.1,10.4v2.4h-5.7v-2.5c0-3.1-.6-5.2-3.5-5.2s-3.5,1.5-3.5,5.2v13.1c0,3.8,1.3,5.3,3.5,5.3s3.5-1.6,3.5-5.2v-2.8h5.7v2.6c0,6.1-2.2,10.4-9.1,10.4s-9.1-3.6-9.1-11Z"/>
    <path class="st0" d="M655.2,307.6v-32.5h5.7v32.5h-5.7Z"/>
    <path class="st0" d="M666.8,307.6v-32.5h14.8v5h-9.1v8.5h8v4.9h-8v9.1h9.3v5h-14.9Z"/>
    <path class="st0" d="M686.4,307.6v-32.5h8.3c6.8,0,9.7,3.8,9.7,12.8v6.9c0,9.1-2.9,12.8-9.6,12.8h-8.3ZM692,302.7h2.1c3,0,4.6-1.5,4.6-7v-8.6c0-5.5-1.6-7-4.6-7h-2.1v22.6Z"/>
    <path class="st0" d="M722.7,307.6l-1.2-6.3h-7.4l-1.2,6.3h-5.8l6.9-32.5h7.5l6.9,32.5h-5.8ZM715,296.4h5.6l-2.3-12.3-.4-2.8h0l-.4,2.7-2.3,12.3Z"/>
    <path class="st0" d="M732.5,307.6v-32.5h8.3c6.8,0,9.7,3.8,9.7,12.8v6.9c0,9.1-2.9,12.8-9.6,12.8h-8.3ZM738.1,302.7h2.1c3,0,4.6-1.5,4.6-7v-8.6c0-5.5-1.6-7-4.6-7h-2.1v22.6Z"/>
    <path class="st0" d="M766.7,307.6v-32.5h8.3c4.8,0,8.1,2.2,8.1,7v2c0,2.8-1,5-3.6,6.2h0c3.1.8,4.6,3.1,4.6,6.5v2.5c0,5.2-2.5,8.2-8.5,8.2h-8.9ZM772.3,288.5h2.3c2.5,0,3.3-1.2,3.3-3.4v-2c0-2.1-.9-3.2-3.3-3.2h-2.3v8.6ZM772.3,302.8h2.6c2.5,0,3.6-1.2,3.6-3.6v-2.3c0-2.6-1.2-3.6-3.7-3.6h-2.5v9.5Z"/>
    <path class="st0" d="M791.9,273h-3.5l2.8-5.8h5.2l-4.5,5.8ZM789.2,307.6v-32.5h5.7v32.5h-5.7Z"/>
    <path class="st0" d="M800.8,307.6v-32.5h8.3c4.8,0,8.1,2.2,8.1,7v2c0,2.8-1,5-3.6,6.2h0c3.1.8,4.6,3.1,4.6,6.5v2.5c0,5.2-2.5,8.2-8.5,8.2h-8.9ZM806.4,288.5h2.3c2.5,0,3.3-1.2,3.3-3.4v-2c0-2.1-.9-3.2-3.3-3.2h-2.3v8.6ZM806.4,302.8h2.6c2.5,0,3.6-1.2,3.6-3.6v-2.3c0-2.6-1.2-3.6-3.7-3.6h-2.5v9.5Z"/>
    <path class="st0" d="M823.3,307.6v-32.5h5.7v27.5h8.6v5h-14.3Z"/>
    <path class="st0" d="M841.8,307.6v-32.5h5.7v32.5h-5.7Z"/>
    <path class="st0" d="M852.8,297.3v-11.7c0-7.4,2.8-11,9.1-11s9.1,4.3,9.1,10.4v2.4h-5.7v-2.5c0-3.1-.6-5.2-3.5-5.2s-3.5,1.5-3.5,5.2v13.1c0,3.8,1.3,5.3,3.5,5.3s3.5-1.6,3.5-5.2v-2.8h5.7v2.6c0,6.1-2.2,10.4-9.1,10.4s-9.1-3.6-9.1-11Z"/>
    <path class="st0" d="M889.1,307.6l-1.2-6.3h-7.4l-1.2,6.3h-5.8l6.9-32.5h7.5l6.9,32.5h-5.8ZM881.4,296.4h5.6l-2.3-12.3-.4-2.8h0l-.4,2.7-2.3,12.3Z"/>
    <path class="st0" d="M923.4,307.6l-1.2-6.3h-7.4l-1.2,6.3h-5.8l6.9-32.5h7.5l6.9,32.5h-5.8ZM915.8,296.4h5.6l-2.3-12.3-.4-2.8h0l-.4,2.7-2.3,12.3Z"/>
    <path class="st0" d="M933.2,307.6v-32.5h8.9c5.7,0,8.7,2.8,8.7,8.2v2.5c0,3.6-1.6,6-4.3,6.7h0c2.6.7,3.8,3.3,4,6.6l.3,4.3c.1,1.8.4,3.3.8,4.2h-5.7c-.3-1-.5-2.7-.7-5.1l-.3-4.1c-.2-2.1-1.3-3.2-3.6-3.2h-2.3v12.4h-5.7ZM938.8,290.6h2.6c2.1,0,3.7-1,3.7-4.2v-2.7c0-2.4-1.1-3.7-3.3-3.7h-2.9v10.6Z"/>
    <path class="st0" d="M955,297.3v-11.7c0-7.4,2.8-11,9.2-11s9,4.1,9,10.4v1.9h-5.6v-2.3c0-2.9-.6-4.9-3.4-4.9s-3.5,1.5-3.5,5.1v13.4c0,3.9,1.4,5.3,3.5,5.3s3.9-1.4,3.9-5.2v-2.6h-3.6v-4.7h8.8v6.2c0,6.9-2.1,11.2-9.1,11.2s-9.2-3.6-9.2-11Z"/>
    <path class="st0" d="M978.2,307.6v-32.5h14.8v5h-9.1v8.5h8v4.9h-8v9.1h9.3v5h-14.9Z"/>
    <path class="st0" d="M997.8,307.6v-32.5h5.9l6.4,17.5,1,3.2h0v-3.5c0,0,0-17.2,0-17.2h5.6v32.5h-5.9l-6.4-17.4-1-3.2h0v3.5c0,0,0,17.1,0,17.1h-5.6Z"/>
    <path class="st0" d="M1026.3,307.6v-27.5h-5.7v-5h17.1v5h-5.7v27.5h-5.7Z"/>
    <path class="st0" d="M1041.5,307.6v-32.5h5.7v32.5h-5.7Z"/>
    <path class="st0" d="M1053.1,307.6v-32.5h5.9l6.4,17.5,1,3.2h0v-3.5c0,0,0-17.2,0-17.2h5.6v32.5h-5.9l-6.4-17.4-1-3.2h0v3.5c0,0,0,17.1,0,17.1h-5.6Z"/>
    <path class="st0" d="M1091.6,307.6l-1.2-6.3h-7.4l-1.2,6.3h-5.8l6.9-32.5h7.5l6.9,32.5h-5.8ZM1083.9,296.4h5.6l-2.3-12.3-.4-2.8h0l-.4,2.7-2.3,12.3Z"/>
  </g>
</svg>